<svg width="17" height="20" viewBox="0 0 17 20" xmlns="http://www.w3.org/2000/svg">
	<path d="M15.387 0c0.202 0 0.396 0.04 0.581 0.119 0.291 0.115 0.522 0.295 0.694 0.542 0.172 0.247 0.258 0.52 0.258 0.82v17.038c0 0.3-0.086 0.573-0.258 0.82a1.49 1.49 0 0 1-0.694 0.542 1.49 1.49 0 0 1-0.581 0.106c-0.423 0-0.79-0.141-1.098-0.423L8.46 13.959l-5.83 5.605c-0.317 0.29-0.682 0.436-1.097 0.436-0.202 0-0.396-0.04-0.581-0.119a1.49 1.49 0 0 1-0.694-0.542A1.402 1.402 0 0 1 0 18.52V1.481c0-0.3 0.086-0.573 0.258-0.82A1.49 1.49 0 0 1 0.952 0.119C1.137 0.039 1.33 0 1.533 0h13.854Z" fill="#5A698F"/>
</svg>
